<svg width="519" height="505" viewBox="0 0 519 505" fill="none" xmlns="http://www.w3.org/2000/svg">
<path fill-rule="evenodd" clip-rule="evenodd" d="M40.0378 391.279C45.7525 392.312 50.5563 394.005 55.7189 396.128C59.1403 397.528 63.6586 399.181 68.2225 400.851C76.4498 403.861 84.8255 406.925 87.1928 408.666C95.313 401.539 107.609 394.412 111.784 394.412C112.527 392.696 116.224 385.569 124.674 381.791C149.992 370.457 202.229 357.408 219.014 356.303C230.11 355.575 231.595 355.325 232.999 355.558C234.426 355.795 235.771 356.531 247.055 357.771C269.435 360.229 285.906 363.182 296.98 366.861C297.841 367.148 298.701 367.442 299.558 367.736C307.679 370.519 315.571 373.224 321.572 368.329C322.766 367.827 324.296 367.57 325.972 367.288C328.65 366.838 331.703 366.324 334.363 364.65C351.905 350.323 357.304 344.101 362.004 338.685C363.203 337.303 364.357 335.974 365.655 334.575C372.042 327.696 380.097 316.709 381.83 302.207C383.563 287.706 385.031 260.419 374.205 239.038C370.365 231.456 366.65 225.17 363.268 219.448C357.113 209.034 352.06 200.486 349.365 189.381C345.19 172.174 343.457 145.629 344.942 137.018C345.878 131.592 347.096 126.663 348.178 122.282C348.814 119.71 349.403 117.327 349.861 115.142C351.098 109.236 356.99 104.567 364.12 103.346C371.25 102.126 376.911 104.336 380.097 106.794C381.163 107.617 382.451 108.394 383.739 109.17C386.3 110.714 388.862 112.259 389.686 114.169C389.724 114.359 389.727 114.604 389.73 114.886C389.745 116.411 389.772 119.031 395.594 120.075C402.493 121.312 407.098 123.061 407.098 123.061C407.098 123.061 418.321 126.146 409.326 128.604C404.813 129.333 401.154 129.212 398.281 129.118C395.365 129.022 393.261 128.952 391.897 129.825C390.468 130.74 389.107 132.704 387.888 134.464C386.8 136.035 385.825 137.443 385.015 137.793C384.467 138.03 383.742 138.141 382.898 138.27C381.097 138.546 378.753 138.904 376.416 140.746C376.042 141.041 375.669 141.329 375.296 141.617C372.247 143.971 369.293 146.251 367.322 151.074C365.111 156.485 363.394 162.374 364.863 170.244C366.332 178.113 371.003 192.862 375.195 201.21C375.705 202.231 376.307 203.44 376.976 204.784C381.785 214.439 390.063 231.06 392.657 235.376C395.611 240.292 403.962 256.509 404.705 273.964C405.447 291.418 405.447 305.672 404.705 313.294C403.962 320.915 396.931 350.33 379.222 374.912C375.566 381.25 369.965 388.609 366.03 393.78C363.676 396.872 361.918 399.181 361.529 400.021C361.33 400.45 361.129 400.842 360.939 401.211C360.138 402.77 359.559 403.897 360.374 405.498C361.394 407.493 362.66 409.762 363.963 412.097C366.893 417.35 370.006 422.932 370.92 426.45C371.23 427.346 371.601 428.314 372 429.355C373.723 433.852 375.969 439.711 376.103 447.039H376.037C376.182 454.983 369.434 477.539 354.733 497.41C449.037 459.663 515.65 367.436 515.65 259.65C515.65 118.265 401.035 3.64999 259.65 3.64999C118.265 3.64999 3.64999 118.265 3.64999 259.65C3.64999 307.785 16.9348 352.817 40.0378 391.279Z" fill="white"/>
<path d="M40.0378 391.279L37.4661 392.824L38.1662 393.99L39.5042 394.232L40.0378 391.279ZM55.7189 396.128L54.578 398.902L54.5821 398.904L55.7189 396.128ZM68.2225 400.851L69.2533 398.034L69.2533 398.034L68.2225 400.851ZM87.1928 408.666L85.4159 411.083L87.3591 412.511L89.1717 410.92L87.1928 408.666ZM111.784 394.412V397.412H113.755L114.538 395.603L111.784 394.412ZM124.674 381.791L125.899 384.53L125.9 384.529L124.674 381.791ZM219.014 356.303L218.817 353.309L218.816 353.309L219.014 356.303ZM232.999 355.558L233.49 352.599L233.49 352.599L232.999 355.558ZM247.055 357.771L246.727 360.753L246.727 360.753L247.055 357.771ZM296.98 366.861L297.929 364.015L297.926 364.014L296.98 366.861ZM299.558 367.736L300.531 364.898L300.531 364.898L299.558 367.736ZM321.572 368.329L320.41 365.563L320.011 365.731L319.676 366.004L321.572 368.329ZM325.972 367.288L326.47 370.247L326.47 370.247L325.972 367.288ZM334.363 364.65L335.961 367.189L336.118 367.091L336.261 366.974L334.363 364.65ZM362.004 338.685L359.738 336.719L359.738 336.719L362.004 338.685ZM365.655 334.575L363.457 332.534L363.457 332.534L365.655 334.575ZM381.83 302.207L378.851 301.851L378.851 301.851L381.83 302.207ZM374.205 239.038L376.881 237.683L376.881 237.683L374.205 239.038ZM363.268 219.448L360.685 220.974L360.685 220.974L363.268 219.448ZM349.365 189.381L352.281 188.673L352.281 188.673L349.365 189.381ZM344.942 137.018L341.986 136.508L341.986 136.508L344.942 137.018ZM348.178 122.282L345.266 121.563L345.266 121.563L348.178 122.282ZM349.861 115.142L352.797 115.757L352.797 115.757L349.861 115.142ZM364.12 103.346L364.627 106.303L364.627 106.303L364.12 103.346ZM380.097 106.794L378.264 109.169L378.264 109.169L380.097 106.794ZM383.739 109.17L385.288 106.601L385.288 106.601L383.739 109.17ZM389.686 114.169L392.626 113.573L392.564 113.267L392.44 112.981L389.686 114.169ZM389.73 114.886L386.73 114.916L386.73 114.916L389.73 114.886ZM395.594 120.075L396.124 117.122L396.124 117.122L395.594 120.075ZM407.098 123.061L406.033 125.865L406.166 125.916L406.303 125.954L407.098 123.061ZM409.326 128.604L409.804 131.566L409.962 131.54L410.117 131.498L409.326 128.604ZM398.281 129.118L398.182 132.116L398.182 132.116L398.281 129.118ZM391.897 129.825L393.514 132.352L393.514 132.352L391.897 129.825ZM387.888 134.464L385.422 132.755L385.422 132.755L387.888 134.464ZM385.015 137.793L386.206 140.547L386.206 140.547L385.015 137.793ZM382.898 138.27L382.444 135.305L382.444 135.305L382.898 138.27ZM376.416 140.746L374.559 138.39L374.559 138.39L376.416 140.746ZM375.296 141.617L377.129 143.991L377.129 143.991L375.296 141.617ZM367.322 151.074L370.099 152.209L370.099 152.209L367.322 151.074ZM375.195 201.21L377.879 199.87L377.876 199.863L375.195 201.21ZM376.976 204.784L374.291 206.122L374.291 206.122L376.976 204.784ZM392.657 235.376L395.228 233.831L395.228 233.831L392.657 235.376ZM404.705 273.964L401.707 274.091L401.707 274.091L404.705 273.964ZM404.705 313.294L401.719 313.003L401.719 313.003L404.705 313.294ZM379.222 374.912L376.788 373.158L376.699 373.281L376.623 373.413L379.222 374.912ZM366.03 393.78L363.642 391.963L363.642 391.963L366.03 393.78ZM361.529 400.021L358.807 398.76L358.807 398.76L361.529 400.021ZM360.939 401.211L358.271 399.84L358.271 399.84L360.939 401.211ZM360.374 405.498L357.7 406.858L357.703 406.865L360.374 405.498ZM363.963 412.097L366.583 410.636L366.583 410.636L363.963 412.097ZM370.92 426.45L368.017 427.204L368.046 427.319L368.085 427.431L370.92 426.45ZM372 429.355L374.802 428.282L374.802 428.282L372 429.355ZM376.103 447.039V450.039H379.158L379.102 446.984L376.103 447.039ZM376.037 447.039V444.039H372.981L373.037 447.094L376.037 447.039ZM354.733 497.41L352.321 495.626L346.036 504.123L355.848 500.196L354.733 497.41ZM39.5042 394.232C44.9248 395.211 49.509 396.818 54.578 398.902L56.8598 393.353C51.6037 391.192 46.5803 389.413 40.5714 388.327L39.5042 394.232ZM54.5821 398.904C58.0679 400.331 62.647 402.006 67.1918 403.669L69.2533 398.034C64.6701 396.357 60.2127 394.726 56.8557 393.351L54.5821 398.904ZM67.1918 403.669C71.3172 405.178 75.4249 406.681 78.7962 408.022C80.4815 408.692 81.9492 409.309 83.1232 409.855C84.3477 410.423 85.0817 410.837 85.4159 411.083L88.9697 406.248C88.1203 405.624 86.9196 405.002 85.6507 404.413C84.3313 403.8 82.747 403.136 81.0141 402.447C77.5489 401.068 73.3551 399.534 69.2533 398.034L67.1918 403.669ZM89.1717 410.92C93.0651 407.503 98.0055 404.051 102.472 401.462C104.704 400.168 106.766 399.12 108.478 398.405C110.304 397.643 111.381 397.412 111.784 397.412V391.412C110.1 391.412 108.074 392.072 106.166 392.868C104.145 393.712 101.843 394.891 99.4634 396.271C94.7083 399.027 89.4407 402.701 85.2139 406.411L89.1717 410.92ZM114.538 395.603C115.134 394.225 118.417 387.875 125.899 384.53L123.45 379.052C114.031 383.263 109.92 391.167 109.031 393.22L114.538 395.603ZM125.9 384.529C138.332 378.964 157.533 372.917 175.807 368.113C194.126 363.296 211.134 359.828 219.211 359.296L218.816 353.309C210.108 353.882 192.605 357.492 174.281 362.31C155.911 367.14 136.334 373.285 123.449 379.053L125.9 384.529ZM219.21 359.296C224.886 358.924 227.82 358.693 229.833 358.564C231.807 358.437 232.195 358.466 232.507 358.518L233.49 352.599C232.398 352.417 231.342 352.454 229.448 352.576C227.594 352.695 224.238 352.953 218.817 353.309L219.21 359.296ZM232.507 358.518C233.589 358.697 235.378 359.506 246.727 360.753L247.382 354.789C236.165 353.557 235.264 352.893 233.49 352.599L232.507 358.518ZM246.727 360.753C269.063 363.206 285.274 366.133 296.035 369.708L297.926 364.014C286.538 360.231 269.806 357.252 247.382 354.789L246.727 360.753ZM296.032 369.707C296.878 369.989 297.726 370.28 298.586 370.574L300.531 364.898C299.676 364.605 298.803 364.306 297.929 364.015L296.032 369.707ZM298.586 370.574C302.564 371.937 306.899 373.438 311.031 373.894C315.281 374.362 319.65 373.768 323.468 370.654L319.676 366.004C317.493 367.785 314.916 368.286 311.689 367.93C308.345 367.561 304.674 366.318 300.531 364.898L298.586 370.574ZM322.734 371.095C323.539 370.757 324.681 370.548 326.47 370.247L325.475 364.33C323.911 364.593 321.994 364.898 320.41 365.563L322.734 371.095ZM326.47 370.247C329.064 369.81 332.715 369.232 335.961 367.189L332.765 362.111C330.691 363.417 328.237 363.865 325.475 364.33L326.47 370.247ZM336.261 366.974C353.941 352.533 359.462 346.191 364.27 340.651L359.738 336.719C355.145 342.012 349.869 348.112 332.465 362.327L336.261 366.974ZM364.27 340.651C365.473 339.265 366.595 337.972 367.854 336.616L363.457 332.534C362.119 333.975 360.934 335.341 359.738 336.719L364.27 340.651ZM367.854 336.616C374.43 329.533 382.967 317.975 384.808 302.563L378.851 301.851C377.227 315.442 369.655 325.858 363.457 332.534L367.854 336.616ZM384.808 302.563C386.549 287.995 388.141 259.919 376.881 237.683L371.528 240.394C381.922 260.919 380.576 287.416 378.851 301.851L384.808 302.563ZM376.881 237.683C372.992 230.004 369.231 223.642 365.85 217.922L360.685 220.974C364.069 226.699 367.738 232.908 371.528 240.394L376.881 237.683ZM365.85 217.922C359.667 207.46 354.855 199.279 352.281 188.673L346.45 190.088C349.266 201.692 354.558 210.608 360.685 220.974L365.85 217.922ZM352.281 188.673C350.244 180.278 348.784 169.511 348.022 159.743C347.252 149.88 347.226 141.426 347.899 137.528L341.986 136.508C341.173 141.221 341.27 150.346 342.04 160.209C342.817 170.168 344.312 181.276 346.45 190.088L352.281 188.673ZM347.899 137.528C348.814 132.221 350.006 127.391 351.091 123.002L345.266 121.563C344.185 125.936 342.942 130.962 341.986 136.508L347.899 137.528ZM351.091 123.002C351.723 120.443 352.326 118.005 352.797 115.757L346.924 114.527C346.48 116.649 345.905 118.977 345.266 121.563L351.091 123.002ZM352.797 115.757C353.706 111.42 358.297 107.387 364.627 106.303L363.614 100.389C355.684 101.747 348.491 107.051 346.924 114.527L352.797 115.757ZM364.627 106.303C370.879 105.233 375.701 107.191 378.264 109.169L381.929 104.419C378.122 101.481 371.622 99.0183 363.614 100.389L364.627 106.303ZM378.264 109.169C379.493 110.118 380.939 110.985 382.19 111.74L385.288 106.601C383.963 105.802 382.833 105.117 381.929 104.419L378.264 109.169ZM382.19 111.74C383.507 112.533 384.632 113.216 385.535 113.911C386.473 114.631 386.826 115.113 386.931 115.357L392.44 112.981C391.722 111.315 390.383 110.069 389.193 109.154C387.969 108.213 386.533 107.351 385.288 106.601L382.19 111.74ZM386.746 114.765C386.732 114.698 386.727 114.653 386.725 114.636C386.723 114.619 386.724 114.617 386.725 114.637C386.726 114.658 386.727 114.689 386.728 114.738C386.728 114.788 386.729 114.843 386.73 114.916L392.729 114.856C392.728 114.68 392.734 114.106 392.626 113.573L386.746 114.765ZM386.73 114.916C386.737 115.666 386.702 117.629 388.089 119.468C389.471 121.298 391.792 122.441 395.065 123.028L396.124 117.122C393.574 116.665 392.971 115.975 392.879 115.854C392.793 115.74 392.737 115.631 392.729 114.855L386.73 114.916ZM395.065 123.028C398.389 123.624 401.158 124.343 403.087 124.91C404.051 125.193 404.802 125.438 405.306 125.609C405.557 125.694 405.747 125.761 405.869 125.806C405.931 125.828 405.975 125.844 406.003 125.854C406.017 125.859 406.026 125.863 406.031 125.865C406.033 125.866 406.035 125.866 406.035 125.866C406.035 125.866 406.035 125.866 406.035 125.866C406.035 125.866 406.034 125.866 406.034 125.866C406.034 125.866 406.034 125.866 406.033 125.866C406.033 125.866 406.033 125.865 407.098 123.061C408.163 120.256 408.163 120.256 408.162 120.256C408.162 120.256 408.162 120.256 408.161 120.256C408.161 120.255 408.16 120.255 408.159 120.255C408.158 120.254 408.156 120.254 408.154 120.253C408.15 120.251 408.144 120.249 408.138 120.247C408.125 120.242 408.108 120.236 408.086 120.228C408.043 120.211 407.982 120.189 407.904 120.161C407.748 120.105 407.523 120.026 407.236 119.928C406.66 119.732 405.829 119.462 404.779 119.154C402.681 118.537 399.698 117.763 396.124 117.122L395.065 123.028ZM407.098 123.061C406.303 125.954 406.302 125.953 406.302 125.953C406.302 125.953 406.301 125.953 406.301 125.953C406.3 125.953 406.3 125.953 406.3 125.953C406.3 125.953 406.3 125.953 406.301 125.953C406.304 125.954 406.308 125.955 406.315 125.957C406.33 125.961 406.354 125.968 406.386 125.977C406.452 125.996 406.552 126.026 406.679 126.065C406.935 126.144 407.293 126.26 407.696 126.405C408.554 126.713 409.417 127.084 409.965 127.436C410.255 127.622 410.247 127.671 410.146 127.532C410.002 127.334 409.629 126.64 409.928 125.748C410.163 125.046 410.612 124.89 410.313 125.062C410.073 125.2 409.54 125.436 408.535 125.71L410.117 131.498C411.361 131.158 412.444 130.759 413.312 130.259C414.122 129.791 415.169 128.991 415.617 127.654C416.129 126.127 415.582 124.807 415.001 124.007C414.464 123.267 413.755 122.739 413.205 122.385C412.071 121.658 410.691 121.105 409.726 120.758C409.217 120.575 408.769 120.431 408.446 120.331C408.284 120.281 408.152 120.242 408.057 120.215C408.01 120.201 407.972 120.19 407.944 120.182C407.93 120.179 407.919 120.175 407.911 120.173C407.906 120.172 407.903 120.171 407.9 120.17C407.898 120.17 407.897 120.169 407.896 120.169C407.895 120.169 407.895 120.169 407.894 120.169C407.894 120.168 407.893 120.168 407.098 123.061ZM408.848 125.642C404.644 126.321 401.235 126.213 398.38 126.119L398.182 132.116C401.072 132.211 404.982 132.344 409.804 131.566L408.848 125.642ZM398.38 126.119C396.975 126.073 395.54 126.022 394.282 126.116C393.023 126.211 391.575 126.47 390.28 127.298L393.514 132.352C393.583 132.308 393.869 132.164 394.732 132.1C395.597 132.035 396.672 132.066 398.182 132.116L398.38 126.119ZM390.28 127.298C389.162 128.014 388.224 129.027 387.486 129.935C386.729 130.866 386.018 131.895 385.422 132.755L390.355 136.172C390.977 135.273 391.556 134.44 392.141 133.72C392.745 132.977 393.203 132.551 393.514 132.352L390.28 127.298ZM385.422 132.755C384.858 133.57 384.412 134.21 384.019 134.695C383.827 134.931 383.694 135.071 383.614 135.145C383.517 135.234 383.591 135.141 383.824 135.04L386.206 140.547C387.351 140.052 388.197 139.067 388.676 138.478C389.244 137.778 389.83 136.929 390.355 136.172L385.422 132.755ZM383.824 135.04C383.828 135.038 383.803 135.049 383.738 135.068C383.674 135.086 383.584 135.109 383.46 135.134C383.196 135.189 382.886 135.237 382.444 135.305L383.351 141.236C384.058 141.128 385.224 140.971 386.206 140.547L383.824 135.04ZM382.444 135.305C380.611 135.585 377.564 136.022 374.559 138.39L378.273 143.102C379.942 141.787 381.584 141.506 383.351 141.236L382.444 135.305ZM374.559 138.39C374.199 138.674 373.837 138.953 373.463 139.242L377.129 143.991C377.5 143.705 377.886 143.408 378.273 143.102L374.559 138.39ZM373.463 139.242C370.379 141.623 366.842 144.318 364.545 149.939L370.099 152.209C371.744 148.185 374.115 146.319 377.129 143.991L373.463 139.242ZM364.545 149.939C362.226 155.613 360.296 162.127 361.914 170.794L367.812 169.693C366.492 162.622 367.995 157.357 370.099 152.209L364.545 149.939ZM361.914 170.794C363.429 178.908 368.182 193.929 372.514 202.556L377.876 199.863C373.824 191.794 369.235 177.318 367.812 169.693L361.914 170.794ZM372.511 202.549C373.02 203.57 373.622 204.777 374.291 206.122L379.662 203.447C378.993 202.103 378.39 200.893 377.879 199.87L372.511 202.549ZM374.291 206.122C379.055 215.686 387.412 232.472 390.085 236.921L395.228 233.831C392.715 229.648 384.515 213.192 379.662 203.447L374.291 206.122ZM390.085 236.921C392.936 241.665 400.996 257.37 401.707 274.091L407.702 273.836C406.928 255.649 398.286 238.919 395.228 233.831L390.085 236.921ZM401.707 274.091C402.45 291.537 402.439 305.607 401.719 313.003L407.691 313.584C408.455 305.736 408.445 291.299 407.702 273.836L401.707 274.091ZM401.719 313.003C401.02 320.172 394.146 349.065 376.788 373.158L381.656 376.665C399.717 351.596 406.904 321.659 407.691 313.584L401.719 313.003ZM376.623 373.413C373.082 379.553 367.608 386.752 363.642 391.963L368.417 395.597C372.321 390.467 378.05 382.947 381.821 376.411L376.623 373.413ZM363.642 391.963C362.472 393.5 361.424 394.876 360.622 395.973C359.896 396.964 359.154 398.012 358.807 398.76L364.251 401.282C364.243 401.301 364.311 401.165 364.559 400.795C364.781 400.463 365.083 400.037 365.464 399.517C366.225 398.476 367.233 397.151 368.417 395.597L363.642 391.963ZM358.807 398.76C358.638 399.125 358.463 399.466 358.271 399.84L363.608 402.582C363.794 402.219 364.023 401.774 364.251 401.282L358.807 398.76ZM358.271 399.84C357.921 400.52 357.358 401.57 357.116 402.718C356.829 404.076 356.987 405.456 357.7 406.858L363.048 404.138C362.977 403.998 362.976 403.95 362.979 403.972C362.983 403.998 362.976 404.005 362.986 403.959C362.999 403.895 363.037 403.766 363.144 403.523C363.255 403.27 363.398 402.99 363.608 402.582L358.271 399.84ZM357.703 406.865C358.753 408.917 360.048 411.237 361.343 413.558L366.583 410.636C365.273 408.288 364.036 406.069 363.045 404.132L357.703 406.865ZM361.343 413.558C362.815 416.198 364.294 418.85 365.52 421.277C366.768 423.748 367.646 425.779 368.017 427.204L373.824 425.695C373.28 423.603 372.145 421.084 370.875 418.571C369.583 416.014 368.04 413.249 366.583 410.636L361.343 413.558ZM368.085 427.431C368.415 428.383 368.804 429.399 369.199 430.429L374.802 428.282C374.398 427.229 374.046 426.31 373.755 425.469L368.085 427.431ZM369.199 430.429C370.922 434.925 372.98 440.345 373.103 447.094L379.102 446.984C378.957 439.077 376.525 432.779 374.802 428.282L369.199 430.429ZM376.103 444.039H376.037V450.039H376.103V444.039ZM373.037 447.094C373.099 450.475 371.619 457.662 368.152 466.675C364.727 475.578 359.488 485.939 352.321 495.626L357.145 499.195C364.679 489.01 370.164 478.158 373.752 468.829C377.298 459.61 379.12 451.546 379.036 446.984L373.037 447.094ZM355.848 500.196C451.252 462.008 518.65 368.704 518.65 259.65H512.65C512.65 366.168 446.823 457.318 353.618 494.625L355.848 500.196ZM518.65 259.65C518.65 116.608 402.692 0.649994 259.65 0.649994V6.64999C399.378 6.64999 512.65 119.922 512.65 259.65H518.65ZM259.65 0.649994C116.608 0.649994 0.649994 116.608 0.649994 259.65H6.64999C6.64999 119.922 119.922 6.64999 259.65 6.64999V0.649994ZM0.649994 259.65C0.649994 308.344 14.0906 353.908 37.4661 392.824L42.6095 389.735C19.7789 351.725 6.64999 307.226 6.64999 259.65H0.649994Z" fill="#181B20"/>
</svg>
