<svg width="60" height="60" viewBox="8 8 40 40" fill="none" xmlns="http://www.w3.org/2000/svg">
<circle r="4.1939" transform="matrix(-1 0 0 1 10.7646 15.7964)" fill="current"/>
<circle r="4.1939" transform="matrix(-1 0 0 1 10.7646 15.7964)" fill="black"/>
<path d="M10.0654 15.167L17.894 22.9956" stroke="current" stroke-width="2.09695"/>
<path d="M10.0654 15.167L17.894 22.9956" stroke="black" stroke-opacity="0.8" stroke-width="2.09695"/>
<circle cx="45.0147" cy="15.7964" r="4.1939" fill="current"/>
<circle cx="45.0147" cy="15.7964" r="4.1939" fill="black"/>
<path d="M45.7837 15.167L37.9551 22.9956" stroke="current" stroke-width="2.09695"/>
<path d="M45.7837 15.167L37.9551 22.9956" stroke="black" stroke-opacity="0.8" stroke-width="2.09695"/>
<path fill-rule="evenodd" clip-rule="evenodd" d="M11.9547 40.8225C9.69432 39.7465 8.37881 37.33 8.81947 34.8656C10.7108 24.2886 18.5929 16.3555 28.0292 16.3555C37.4883 16.3555 45.3857 24.327 47.2525 34.9425C47.6866 37.4114 46.3604 39.8267 44.0923 40.894C39.239 43.1779 33.8181 44.4546 28.0991 44.4546C22.3205 44.4546 16.8464 43.1513 11.9547 40.8225Z" fill="#FFDF6F"/>
<path d="M9.85157 35.0502C11.6791 24.8299 19.2335 17.4039 28.0292 17.4039V15.307C17.9523 15.307 9.74249 23.7472 7.78736 34.6811L9.85157 35.0502ZM28.0292 17.4039C36.846 17.4039 44.4159 24.8662 46.2198 35.1241L48.2851 34.7609C46.3554 23.7879 38.1305 15.307 28.0292 15.307V17.4039ZM43.6459 39.9454C38.9293 42.1649 33.6606 43.4061 28.0991 43.4061V45.5031C33.9757 45.5031 39.5487 44.191 44.5388 41.8427L43.6459 39.9454ZM28.0991 43.4061C22.4797 43.4061 17.1593 42.139 12.4054 39.8758L11.504 41.7692C16.5336 44.1636 22.1613 45.5031 28.0991 45.5031V43.4061ZM46.2198 35.1241C46.5679 37.1035 45.5081 39.069 43.6459 39.9454L44.5388 41.8427C47.2128 40.5844 48.8053 37.7192 48.2851 34.7609L46.2198 35.1241ZM7.78736 34.6811C7.25933 37.6341 8.83921 40.5006 11.504 41.7692L12.4054 39.8758C10.5494 38.9923 9.49829 37.0259 9.85157 35.0502L7.78736 34.6811Z" fill="current"/>
<path d="M9.85157 35.0502C11.6791 24.8299 19.2335 17.4039 28.0292 17.4039V15.307C17.9523 15.307 9.74249 23.7472 7.78736 34.6811L9.85157 35.0502ZM28.0292 17.4039C36.846 17.4039 44.4159 24.8662 46.2198 35.1241L48.2851 34.7609C46.3554 23.7879 38.1305 15.307 28.0292 15.307V17.4039ZM43.6459 39.9454C38.9293 42.1649 33.6606 43.4061 28.0991 43.4061V45.5031C33.9757 45.5031 39.5487 44.191 44.5388 41.8427L43.6459 39.9454ZM28.0991 43.4061C22.4797 43.4061 17.1593 42.139 12.4054 39.8758L11.504 41.7692C16.5336 44.1636 22.1613 45.5031 28.0991 45.5031V43.4061ZM46.2198 35.1241C46.5679 37.1035 45.5081 39.069 43.6459 39.9454L44.5388 41.8427C47.2128 40.5844 48.8053 37.7192 48.2851 34.7609L46.2198 35.1241ZM7.78736 34.6811C7.25933 37.6341 8.83921 40.5006 11.504 41.7692L12.4054 39.8758C10.5494 38.9923 9.49829 37.0259 9.85157 35.0502L7.78736 34.6811Z" fill="black"/>
<path fill-rule="evenodd" clip-rule="evenodd" d="M15.9879 38.1929C14.1684 37.4519 13.0891 35.516 13.7195 33.6553C15.6638 27.9171 21.3355 23.7646 28.0293 23.7646C34.7231 23.7646 40.3947 27.9171 42.339 33.6553C42.9695 35.516 41.8902 37.4518 40.0707 38.1929C36.3546 39.7064 32.2893 40.5403 28.0292 40.5403C23.7692 40.5403 19.704 39.7064 15.9879 38.1929Z" fill="current"/>
<path fill-rule="evenodd" clip-rule="evenodd" d="M15.9879 38.1929C14.1684 37.4519 13.0891 35.516 13.7195 33.6553C15.6638 27.9171 21.3355 23.7646 28.0293 23.7646C34.7231 23.7646 40.3947 27.9171 42.339 33.6553C42.9695 35.516 41.8902 37.4518 40.0707 38.1929C36.3546 39.7064 32.2893 40.5403 28.0292 40.5403C23.7692 40.5403 19.704 39.7064 15.9879 38.1929Z" fill="black"/>
<ellipse cx="32.8523" cy="32.7119" rx="3.49492" ry="2.79593" fill="current"/>
<ellipse cx="32.8523" cy="32.7119" rx="3.49492" ry="2.79593" fill="white" fill-opacity="0.97"/>
<ellipse cx="22.847" cy="32.7139" rx="3.49492" ry="2.79593" fill="current"/>
<ellipse cx="22.847" cy="32.7139" rx="3.49492" ry="2.79593" fill="white" fill-opacity="0.97"/>
</svg>
