<?xml version="1.0" standalone="no"?>
<!DOCTYPE svg PUBLIC "-//W3C//DTD SVG 20010904//EN"
 "http://www.w3.org/TR/2001/REC-SVG-20010904/DTD/svg10.dtd">
<svg version="1.0" xmlns="http://www.w3.org/2000/svg"
 width="519.000000pt" height="519.000000pt" viewBox="0 0 519.000000 519.000000"
 preserveAspectRatio="xMidYMid meet">
<metadata>
Created by potrace 1.14, written by Peter Selinger 2001-2017
</metadata>
<g transform="translate(0.000000,519.000000) scale(0.100000,-0.100000)"
fill="#000000" stroke="none">
<path d="M2517 5113 c-1 -1 -49 -4 -107 -7 -58 -3 -114 -8 -125 -10 -11 -2
-55 -9 -98 -16 -110 -16 -113 -17 -223 -45 -104 -27 -238 -69 -289 -90 -16 -7
-55 -23 -85 -35 -231 -94 -496 -259 -694 -434 -100 -88 -232 -223 -296 -302
-74 -93 -120 -155 -120 -163 0 -5 -4 -11 -8 -13 -15 -6 -131 -195 -181 -296
-125 -251 -193 -452 -246 -732 -39 -205 -49 -582 -20 -760 2 -14 7 -45 10 -70
11 -81 18 -115 41 -212 2 -10 6 -26 8 -36 39 -174 148 -447 254 -637 38 -68
41 -70 98 -87 90 -26 388 -140 396 -152 4 -6 8 -7 8 -2 0 5 7 3 15 -4 12 -10
19 -10 34 1 129 95 221 146 241 134 6 -3 10 0 10 8 0 28 71 96 133 126 68 33
326 121 355 121 10 0 22 4 28 9 5 5 23 12 39 15 17 3 84 19 150 36 66 16 134
32 150 35 17 3 44 8 60 12 66 12 153 24 205 26 25 2 68 -1 95 -5 49 -8 67 -10
175 -23 30 -3 64 -8 75 -10 11 -2 43 -7 70 -10 44 -6 212 -39 240 -48 6 -2 50
-16 99 -31 97 -31 155 -31 211 -2 17 9 39 16 50 17 35 1 82 23 126 59 77 63
273 264 323 330 44 59 111 180 100 180 -3 0 0 9 6 20 16 30 25 123 25 275 0
278 -34 390 -211 681 -81 133 -121 238 -139 359 -13 82 -16 105 -22 170 -14
138 -7 254 21 370 32 128 43 148 96 175 46 24 141 22 169 -4 10 -9 21 -16 25
-16 17 0 76 -54 76 -70 0 -33 51 -60 140 -73 43 -7 17 -19 -44 -20 -55 -2 -60
-4 -95 -43 -20 -23 -47 -45 -61 -49 -40 -11 -115 -65 -139 -101 -54 -79 -70
-202 -39 -309 6 -22 12 -42 13 -45 16 -76 158 -385 263 -575 35 -62 80 -174
87 -216 3 -18 8 -35 10 -39 14 -23 22 -397 10 -495 -11 -96 -60 -248 -125
-390 -22 -46 -146 -253 -159 -265 -3 -3 -22 -29 -41 -57 -19 -29 -38 -53 -42
-53 -5 0 -8 -7 -8 -15 0 -7 -6 -18 -14 -22 -19 -11 -56 -83 -56 -108 0 -12 4
-25 9 -30 22 -25 96 -179 122 -256 36 -105 34 -186 -7 -300 -30 -84 -118 -259
-145 -288 -11 -11 -19 -24 -19 -28 -1 -4 -14 -24 -30 -43 -38 -44 -38 -53 3
-36 17 8 48 21 67 29 19 9 37 15 40 14 3 0 70 33 150 73 154 79 342 200 468
302 87 70 322 303 367 363 17 22 38 49 48 60 9 10 43 58 74 105 32 47 60 87
63 90 4 3 19 28 35 55 82 145 104 188 111 208 3 12 12 29 19 37 8 8 14 20 16
25 3 15 10 36 29 80 25 59 45 109 46 118 1 4 3 9 4 12 1 3 3 8 5 13 1 4 4 14
8 22 16 42 62 207 73 265 2 11 8 43 14 70 16 84 22 121 36 245 9 88 11 361 2
441 -4 41 -10 97 -12 124 -3 28 -7 61 -10 75 -3 14 -8 43 -11 65 -3 22 -17 85
-30 140 -14 55 -27 109 -30 119 -2 11 -15 49 -27 85 -12 36 -23 68 -23 71 -2
7 -13 33 -53 130 -63 151 -209 419 -233 428 -5 2 -9 8 -9 13 0 10 -59 91 -145
199 -173 217 -480 475 -720 605 -38 21 -89 48 -111 61 -23 12 -75 36 -115 54
-41 17 -85 36 -99 42 -14 6 -34 14 -45 19 -25 11 -203 68 -230 74 -11 2 -38 9
-60 14 -22 5 -51 12 -65 15 -14 3 -36 7 -50 10 -61 13 -78 16 -125 22 -27 3
-61 7 -75 10 -71 10 -376 24 -383 17z"/>
</g>
</svg>
